# xmcd
#
# Track frame offsets:
#	150
#	11507
#	27963
#	41935
#	58861
#	75962
#	96785
#	115276
#	123160
#	142774
#	152168
#	168829
#	184396
#
# Disc length: 2653 seconds
#
# Revision: 0
# Processed by: cddbd v1.5.2PL0 Copyright (c) Steve Scherf et al.
# Submitted via: EasyCDDAExtractor 15.2.5.1
#
DISCID=a00a5b0d
DTITLE=Highway - Wanted
DYEAR=2012
DGENRE=
TTITLE0=When Your Mama Says
TTITLE1=Boy Meets a Girl
TTITLE2=Heart of Stone
TTITLE3=I'm Waiting For Someone
TTITLE4=I'll Take Your Blues
TTITLE5=I Just Can't Make It
TTITLE6=I Don't Know What To Do
TTITLE7=I Can't Take It No More
TTITLE8=No One's Waiting For You
TTITLE9=I'm Flying
TTITLE10=Sometimes It's Better To Be Kind
TTITLE11=Walk On By
TTITLE12=You Know Nothing About At All
EXTD=
EXTT0=
EXTT1=
EXTT2=
EXTT3=
EXTT4=
EXTT5=
EXTT6=
EXTT7=
EXTT8=
EXTT9=
EXTT10=
EXTT11=
EXTT12=
PLAYORDER=
